<svg id="Layer_1" data-name="Layer 1" xmlns="http://www.w3.org/2000/svg" viewBox="0 0 1494.12 1370.97"><ellipse cx="794.12" cy="1319.6" rx="700" ry="51.38" fill="#ccc"/><rect x="137.87" y="130.36" width="1312.5" height="1141.67" rx="32" fill="none" stroke="#2a2a2a" stroke-miterlimit="10" stroke-width="16"/><path d="M169.87,130.36h1248.5a32,32,0,0,1,32,32V320.64a0,0,0,0,1,0,0H137.87a0,0,0,0,1,0,0V162.36A32,32,0,0,1,169.87,130.36Z" fill="#8b73f4" stroke="#2a2a2a" stroke-miterlimit="10" stroke-width="16"/><line x1="184.65" y1="335.86" x2="1409.65" y2="335.86" fill="none" stroke="#ccc" stroke-miterlimit="10" stroke-width="16"/><line x1="137.87" y1="276.2" x2="161.87" y2="276.16" fill="none" stroke="#2d2d2d" stroke-linecap="round" stroke-miterlimit="10" stroke-width="16"/><line x1="216.17" y1="276.05" x2="1399.22" y2="273.79" fill="none" stroke="#2d2d2d" stroke-linecap="round" stroke-miterlimit="10" stroke-width="16" stroke-dasharray="46.55 54.3"/><line x1="1426.37" y1="273.74" x2="1450.37" y2="273.69" fill="none" stroke="#2d2d2d" stroke-linecap="round" stroke-miterlimit="10" stroke-width="16"/><line x1="8" y1="196.81" x2="82.92" y2="183.4" fill="none" stroke="#2d2d2d" stroke-linecap="round" stroke-miterlimit="10" stroke-width="16"/><line x1="184.21" y1="8" x2="171" y2="82.96" fill="none" stroke="#2d2d2d" stroke-linecap="round" stroke-miterlimit="10" stroke-width="16"/><line x1="38.38" y1="49.25" x2="92.2" y2="103.07" fill="none" stroke="#2d2d2d" stroke-linecap="round" stroke-miterlimit="10" stroke-width="16"/><rect x="287.98" y="84.69" width="60.89" height="91.33" rx="16" fill="#f0f0f0" stroke="#2d2d2d" stroke-linecap="round" stroke-miterlimit="10" stroke-width="16"/><rect x="525.83" y="84.69" width="60.89" height="91.33" rx="16" fill="#f0f0f0" stroke="#2d2d2d" stroke-linecap="round" stroke-miterlimit="10" stroke-width="16"/><rect x="763.67" y="84.69" width="60.89" height="91.33" rx="16" fill="#f0f0f0" stroke="#2d2d2d" stroke-linecap="round" stroke-miterlimit="10" stroke-width="16"/><rect x="1001.52" y="82.75" width="60.89" height="91.33" rx="16" fill="#f0f0f0" stroke="#2d2d2d" stroke-linecap="round" stroke-miterlimit="10" stroke-width="16"/><rect x="1239.37" y="84.69" width="60.89" height="91.33" rx="16" fill="#f0f0f0" stroke="#2d2d2d" stroke-linecap="round" stroke-miterlimit="10" stroke-width="16"/><path d="M199.59,1272H1380.84a0,0,0,0,1,0,0v6.44a24,24,0,0,1-24,24H223.59a24,24,0,0,1-24-24V1272a0,0,0,0,1,0,0Z" fill="#ccc" stroke="#2d2d2d" stroke-linecap="round" stroke-miterlimit="10" stroke-width="16"/><circle cx="417.52" cy="783.97" r="26.64" fill="#2d2d2d"/><circle cx="1072.35" cy="783.97" r="26.64" fill="#2d2d2d"/><path d="M894.09,1214.56a219.07,219.07,0,0,0,175,0" transform="translate(-203.9 -298.21)" fill="none" stroke="#2d2d2d" stroke-linecap="round" stroke-miterlimit="10" stroke-width="20"/></svg>