<svg xmlns="http://www.w3.org/2000/svg" viewBox="0 0 96 96"><defs><style>.cls-1{fill:none;}.cls-2{fill:#54d280;}</style></defs><title>logo</title><g id="Ebene_1" data-name="Ebene 1"><circle class="cls-1" cx="48" cy="48" r="48"/></g><g id="Ebene_3" data-name="Ebene 3"><path class="cls-2" d="M45.25,62.53l-.4,0h-.22a13.6,13.6,0,0,1-2.42-.26,14.39,14.39,0,0,1-5.12-2.13c-.35-.23-.7-.48-1-.75q-1.72,4.83-3.46,9.64a23.82,23.82,0,0,0,9.48,2.72Z"/><path class="cls-2" d="M48.06,26l-1.5,4.15a20.28,20.28,0,0,1,3.3,1.66,4.32,4.32,0,0,0,1.67.31c3.43,0,8.06-3.11,8.36-5.63L59.72,26Z"/><path class="cls-2" d="M65.25,41.4,60.43,28a6.55,6.55,0,0,1-1,1.35,12,12,0,0,1-7.95,3.78,5.22,5.22,0,0,1-2.06-.39,6.41,6.41,0,0,1-1.06-.59,9.44,9.44,0,0,0-2.18-1.05L36.71,57.57l-.3.85c.4.32.81.63,1.23.91a13,13,0,0,0,7,2.22h.21c.26,0,.5,0,.75,0l8.25-24,4,11.63a7.34,7.34,0,0,1,.48-1.52A12.4,12.4,0,0,1,65.25,41.4Z"/><path class="cls-2" d="M67.65,57.07a22.88,22.88,0,0,0,1.61-4.51L65.59,42.34a11.51,11.51,0,0,0-6.33,5.73,8.47,8.47,0,0,0-.66,3.29l4.26,12.37A23.93,23.93,0,0,0,67.65,57.07Z"/><path class="cls-2" d="M69.84,54.19a23,23,0,0,1-1.29,3.31,25.05,25.05,0,0,1-5.33,7.27Q65.16,70.38,67.08,76H77.67Z"/><path class="cls-2" d="M32.25,70,30.1,76H40.62l1.11-3.25A24.92,24.92,0,0,1,32.25,70Z"/><path class="cls-2" d="M40.62,76H30.1l6.45-18,9.14,3.24Z"/><path class="cls-2" d="M45.25,62.53l-.62,0a13.6,13.6,0,0,1-2.42-.26,14.39,14.39,0,0,1-5.12-2.13c-.35-.23-.7-.48-1-.75q-.79,2.25-1.61,4.49c-.62,1.72-1.23,3.44-1.85,5.15a24,24,0,0,0,9.48,2.72c.7-2,1.41-4.09,2.11-6.14C44.54,64.6,44.9,63.56,45.25,62.53Z"/><path class="cls-2" d="M31.7,68.57l1.18-3.27,2.35-6.56a20.64,20.64,0,0,1-4.16-5.2A19,19,0,0,1,28.33,45a13.87,13.87,0,0,1,1.72-7.68,14.92,14.92,0,0,1,5.73-5.69A14.3,14.3,0,0,1,43,29.55a11.43,11.43,0,0,1,3.53.56,19.39,19.39,0,0,1,3.38,1.69c3.52,1.5,10.37-2.78,10-5.8-.25-2.32-4.73-3.73-8-4.77a24.06,24.06,0,0,0-5.65-1.15,25.57,25.57,0,0,0-14.94,3.64,25.94,25.94,0,0,0-9.62,9.34,23.85,23.85,0,0,0-3.34,12.49,26.29,26.29,0,0,0,3.74,13.17,26.09,26.09,0,0,0,9.52,9.8Z"/><path class="cls-2" d="M69.29,42.28c-2.16-1.47-8.13,1.4-10,5.79-1.16,2.66-.13,4.26-1.5,7.14a11.81,11.81,0,0,1-5.34,5.21,16.26,16.26,0,0,1-6.08,2l-3.23,9.37,1,0A27.15,27.15,0,0,0,57,68.18,26.22,26.22,0,0,0,67.65,57.07a23.6,23.6,0,0,0,1.71-5C70,49.37,71.39,43.7,69.29,42.28Z"/></g></svg>