<svg xmlns="http://www.w3.org/2000/svg" viewBox="0 0 200 53.15"><defs><style>.a{fill:#222;}</style></defs><title>brands-tribeka</title><path class="a" d="M0,53.15,8.07,1.73h9.45l-2.21,14h6.44l-1.5,9.55H13.94L9.48,53.15Z" transform="translate(0 0)"/><path class="a" d="M19.31,53.15,23.67,25.4q1.45-9.69,11.14-9.69h6.44l-1.46,9.55h-3.6a3.24,3.24,0,0,0-3.53,3L28.79,53.15Z" transform="translate(0 0)"/><path class="a" d="M38.89,53.15l5.88-37.44h9.49L48.37,53.15ZM45.12,6.3A6,6,0,0,1,47,1.83,6.57,6.57,0,0,1,51.76,0a4.73,4.73,0,0,1,3.67,1.73A6.13,6.13,0,0,1,57,6a5.54,5.54,0,0,1-1.86,4.22,6.46,6.46,0,0,1-4.57,1.73,5.12,5.12,0,0,1-3.84-1.62A5.54,5.54,0,0,1,45.12,6.3Z" transform="translate(0 0)"/><path class="a" d="M70.24,15.71h13.5A6.85,6.85,0,0,1,89,17.79a7.67,7.67,0,0,1,1.93,5.46l-.07,1.8-3,18.69a11.59,11.59,0,0,1-3.5,6.78,9.41,9.41,0,0,1-6.67,2.63H64.22a8.66,8.66,0,0,1-5.85-1.94,6.42,6.42,0,0,1-2.25-5.12l.28-3L63,1.73h9.48Zm-4.08,26a1.85,1.85,0,0,0,.55,1.38,2,2,0,0,0,1.46.56h7.75a3.38,3.38,0,0,0,2.14-.76,2,2,0,0,0,.49-.83l.27-.9L80.9,28v-.55a1.87,1.87,0,0,0-2.08-2.15H71.49c-1.9,0-3,.88-3.19,2.63L66.16,41.45Z" transform="translate(0 0)"/><path class="a" d="M123.87,53.15H103a15.61,15.61,0,0,1-4.46-.45A6.07,6.07,0,0,1,96,50.8a7.39,7.39,0,0,1-1.38-2.08,5.85,5.85,0,0,1-.48-2.35V44.64c.13-.56.23-1,.27-1.25l3-18.89a9.68,9.68,0,0,1,3.42-6.44A11,11,0,0,1,108,15.71H120.9a8.21,8.21,0,0,1,5.67,1.8,6.69,6.69,0,0,1,2,5.26l-.14,2-1.17,7.47-22.84,8.16-.07.63-.07.69a2.1,2.1,0,0,0,.45,1.42,1.43,1.43,0,0,0,1.14.52H125.4Zm-17.57-25L105.61,32l12.74-4.41v-.35a1.37,1.37,0,0,0-.59-1.09,2.25,2.25,0,0,0-1.42-.45h-6.64a3.8,3.8,0,0,0-2.28.69A2.47,2.47,0,0,0,106.3,28.1Z" transform="translate(0 0)"/><path class="a" d="M130,53.15l8.1-51.42h9.48l-8.09,51.42Zm20.42,0L143,36.61a6.78,6.78,0,0,1-.41-1.8,7.23,7.23,0,0,1,1.59-4.15l11.14-14.95h11.08L152.87,33.84l8.65,19.31Z" transform="translate(0 0)"/><path class="a" d="M170.17,15.71H191.7q8.3,0,8.3,7.38l-.14,1.62-3.11,19.76a10.28,10.28,0,0,1-10,8.68H173.77q-8.45,0-8.44-7.15l.14-1.32,1.17-7.63a10.55,10.55,0,0,1,3.43-6.63,10.67,10.67,0,0,1,7.16-2.32h12.6l.2-.88.07-.95c0-1-.74-1.56-2.21-1.56h-19.1ZM175.36,42a1.83,1.83,0,0,0,.59,1.43,2.25,2.25,0,0,0,1.56.53h7.33c1.66,0,2.61-.73,2.84-2.17l.49-2.66.06-.84a1.17,1.17,0,0,0-.69-1,3.12,3.12,0,0,0-1.66-.42h-7.33a2.82,2.82,0,0,0-2,.52,4,4,0,0,0-.79,2l-.35,2.38Z" transform="translate(0 0)"/></svg>