<svg xmlns="http://www.w3.org/2000/svg" viewBox="0 0 96 96"><defs><style>.a{fill:#052a1a;}.b{isolation:isolate;}.c{fill:#7f1041;}.d{fill:#b7175d;}.e{fill:#cc1a68;}</style></defs><title>Logo</title><circle class="a" cx="48" cy="48" r="48"/><g class="b"><polygon class="c" points="42.05 30.12 41.99 49.68 34.33 45.26 34.39 25.7 42.05 30.12"/><polygon class="d" points="66.72 27.26 66.67 46.82 56.46 50.69 56.51 31.12 66.72 27.26"/><polygon class="c" points="24.82 36.58 24.77 56.14 17.06 51.69 17.11 32.13 24.82 36.58"/><polygon class="d" points="82.81 36.55 82.76 56.11 72.55 59.98 72.6 40.41 82.81 36.55"/><polygon class="c" points="48.59 42.95 48.53 62.51 39.23 57.15 39.29 37.58 48.59 42.95"/><polygon class="d" points="58.09 39.38 58.03 58.94 48.53 62.51 48.59 42.95 58.09 39.38"/><polygon class="d" points="31.57 40.47 31.51 60.03 21.05 63.99 21.1 44.42 31.57 40.47"/><polygon class="c" points="40.86 45.84 40.81 65.4 31.51 60.03 31.57 40.47 40.86 45.84"/><polygon class="d" points="64.88 43.3 64.82 62.87 55.32 66.43 55.38 46.87 64.88 43.3"/><polygon class="e" points="72.8 47.87 64.88 43.3 55.38 46.87 61.87 50.62 55.52 54.3 47.66 49.76 37.19 53.71 30.4 49.79 40.86 45.84 31.57 40.47 21.1 44.42 14.36 40.53 24.82 36.58 17.11 32.13 23.46 28.44 32.55 33.69 42.05 30.12 34.39 25.7 40.73 22.01 49.77 27.23 59.98 23.37 66.72 27.26 56.51 31.12 65.81 36.49 76.02 32.63 82.81 36.55 72.6 40.41 79.14 44.19 72.8 47.87"/><polygon class="e" points="48.59 42.95 39.29 37.58 48.79 34.01 58.09 39.38 48.59 42.95"/><polygon class="c" points="21.1 44.42 21.05 63.99 14.3 60.09 14.36 40.53 21.1 44.42"/><polygon class="c" points="72.8 47.87 72.74 67.44 64.82 62.87 64.88 43.3 72.8 47.87"/><polygon class="d" points="79.14 44.19 79.08 63.75 72.74 67.44 72.8 47.87 79.14 44.19"/><polygon class="d" points="47.66 49.76 47.6 69.32 37.14 73.28 37.19 53.71 47.66 49.76"/><polygon class="c" points="37.19 53.71 37.14 73.28 30.34 69.35 30.4 49.79 37.19 53.71"/><polygon class="d" points="61.87 50.62 61.81 70.18 55.47 73.87 55.52 54.3 61.87 50.62"/><polygon class="c" points="55.52 54.3 55.47 73.87 47.6 69.32 47.66 49.76 55.52 54.3"/></g></svg>